%
M48
M72
T01C0.0320
T02C0.0400
T03C0.0430
T04C0.0672
T05C0.0690
T06C0.1610
%
T01
X6944Y2827
X7845Y2823
X7845Y5823
X6944Y5827
T02
X2652Y1361
X3652Y1361
X4652Y1361
X5652Y1361
X6652Y1361
X7652Y1361
X8652Y1361
X9652Y1361
X10652Y1361
X11652Y1361
X12652Y1361
X13652Y1361
X2652Y7361
X3652Y7361
X4652Y7361
X5652Y7361
X6652Y7361
X7652Y7361
X8652Y7361
X9652Y7361
X10652Y7361
X11652Y7361
X12652Y7361
X13652Y7361
T03
X4154Y2243
X3154Y2243
X11636Y2255
X10636Y2255
T04
X1654Y4243
X5654Y4243
X9136Y4255
X13136Y4255
T05
X2154Y5243
X4654Y6243
X9636Y5255
X12136Y6255
T06
X3654Y4243
X11136Y4255
M30
