G75*
G70*
%OFA0B0*%
%FSLAX24Y24*%
%IPPOS*%
%LPD*%
%AMOC8*
5,1,8,0,0,1.08239X$1,22.5*
%
%ADD10C,0.0000*%
%ADD11C,0.0090*%
%ADD12C,0.0100*%
%ADD13C,0.0060*%
%ADD14R,0.0200X0.0150*%
%ADD15C,0.0050*%
D10*
X000805Y000555D02*
X000805Y008175D01*
X014422Y008175D01*
X014422Y000555D01*
X000805Y000555D01*
X001318Y004243D02*
X001320Y004279D01*
X001326Y004315D01*
X001336Y004350D01*
X001349Y004384D01*
X001366Y004416D01*
X001387Y004446D01*
X001410Y004474D01*
X001436Y004499D01*
X001465Y004521D01*
X001497Y004540D01*
X001530Y004555D01*
X001564Y004567D01*
X001600Y004575D01*
X001636Y004579D01*
X001672Y004579D01*
X001708Y004575D01*
X001744Y004567D01*
X001778Y004555D01*
X001811Y004540D01*
X001843Y004521D01*
X001872Y004499D01*
X001898Y004474D01*
X001921Y004446D01*
X001942Y004416D01*
X001959Y004384D01*
X001972Y004350D01*
X001982Y004315D01*
X001988Y004279D01*
X001990Y004243D01*
X001988Y004207D01*
X001982Y004171D01*
X001972Y004136D01*
X001959Y004102D01*
X001942Y004070D01*
X001921Y004040D01*
X001898Y004012D01*
X001872Y003987D01*
X001843Y003965D01*
X001811Y003946D01*
X001778Y003931D01*
X001744Y003919D01*
X001708Y003911D01*
X001672Y003907D01*
X001636Y003907D01*
X001600Y003911D01*
X001564Y003919D01*
X001530Y003931D01*
X001497Y003946D01*
X001465Y003965D01*
X001436Y003987D01*
X001410Y004012D01*
X001387Y004040D01*
X001366Y004070D01*
X001349Y004102D01*
X001336Y004136D01*
X001326Y004171D01*
X001320Y004207D01*
X001318Y004243D01*
X002849Y004243D02*
X002851Y004299D01*
X002857Y004355D01*
X002867Y004410D01*
X002880Y004465D01*
X002898Y004518D01*
X002919Y004570D01*
X002943Y004621D01*
X002971Y004670D01*
X003003Y004716D01*
X003037Y004760D01*
X003075Y004802D01*
X003115Y004841D01*
X003158Y004877D01*
X003204Y004910D01*
X003251Y004940D01*
X003301Y004967D01*
X003352Y004989D01*
X003405Y005009D01*
X003459Y005024D01*
X003514Y005036D01*
X003570Y005044D01*
X003626Y005048D01*
X003682Y005048D01*
X003738Y005044D01*
X003794Y005036D01*
X003849Y005024D01*
X003903Y005009D01*
X003956Y004989D01*
X004007Y004967D01*
X004056Y004940D01*
X004104Y004910D01*
X004150Y004877D01*
X004193Y004841D01*
X004233Y004802D01*
X004271Y004760D01*
X004305Y004716D01*
X004337Y004670D01*
X004365Y004621D01*
X004389Y004570D01*
X004410Y004518D01*
X004428Y004465D01*
X004441Y004410D01*
X004451Y004355D01*
X004457Y004299D01*
X004459Y004243D01*
X004457Y004187D01*
X004451Y004131D01*
X004441Y004076D01*
X004428Y004021D01*
X004410Y003968D01*
X004389Y003916D01*
X004365Y003865D01*
X004337Y003816D01*
X004305Y003770D01*
X004271Y003726D01*
X004233Y003684D01*
X004193Y003645D01*
X004150Y003609D01*
X004104Y003576D01*
X004057Y003546D01*
X004007Y003519D01*
X003956Y003497D01*
X003903Y003477D01*
X003849Y003462D01*
X003794Y003450D01*
X003738Y003442D01*
X003682Y003438D01*
X003626Y003438D01*
X003570Y003442D01*
X003514Y003450D01*
X003459Y003462D01*
X003405Y003477D01*
X003352Y003497D01*
X003301Y003519D01*
X003251Y003546D01*
X003204Y003576D01*
X003158Y003609D01*
X003115Y003645D01*
X003075Y003684D01*
X003037Y003726D01*
X003003Y003770D01*
X002971Y003816D01*
X002943Y003865D01*
X002919Y003916D01*
X002898Y003968D01*
X002880Y004021D01*
X002867Y004076D01*
X002857Y004131D01*
X002851Y004187D01*
X002849Y004243D01*
X005318Y004243D02*
X005320Y004279D01*
X005326Y004315D01*
X005336Y004350D01*
X005349Y004384D01*
X005366Y004416D01*
X005387Y004446D01*
X005410Y004474D01*
X005436Y004499D01*
X005465Y004521D01*
X005497Y004540D01*
X005530Y004555D01*
X005564Y004567D01*
X005600Y004575D01*
X005636Y004579D01*
X005672Y004579D01*
X005708Y004575D01*
X005744Y004567D01*
X005778Y004555D01*
X005811Y004540D01*
X005843Y004521D01*
X005872Y004499D01*
X005898Y004474D01*
X005921Y004446D01*
X005942Y004416D01*
X005959Y004384D01*
X005972Y004350D01*
X005982Y004315D01*
X005988Y004279D01*
X005990Y004243D01*
X005988Y004207D01*
X005982Y004171D01*
X005972Y004136D01*
X005959Y004102D01*
X005942Y004070D01*
X005921Y004040D01*
X005898Y004012D01*
X005872Y003987D01*
X005843Y003965D01*
X005811Y003946D01*
X005778Y003931D01*
X005744Y003919D01*
X005708Y003911D01*
X005672Y003907D01*
X005636Y003907D01*
X005600Y003911D01*
X005564Y003919D01*
X005530Y003931D01*
X005497Y003946D01*
X005465Y003965D01*
X005436Y003987D01*
X005410Y004012D01*
X005387Y004040D01*
X005366Y004070D01*
X005349Y004102D01*
X005336Y004136D01*
X005326Y004171D01*
X005320Y004207D01*
X005318Y004243D01*
X008800Y004255D02*
X008802Y004291D01*
X008808Y004327D01*
X008818Y004362D01*
X008831Y004396D01*
X008848Y004428D01*
X008869Y004458D01*
X008892Y004486D01*
X008918Y004511D01*
X008947Y004533D01*
X008979Y004552D01*
X009012Y004567D01*
X009046Y004579D01*
X009082Y004587D01*
X009118Y004591D01*
X009154Y004591D01*
X009190Y004587D01*
X009226Y004579D01*
X009260Y004567D01*
X009293Y004552D01*
X009325Y004533D01*
X009354Y004511D01*
X009380Y004486D01*
X009403Y004458D01*
X009424Y004428D01*
X009441Y004396D01*
X009454Y004362D01*
X009464Y004327D01*
X009470Y004291D01*
X009472Y004255D01*
X009470Y004219D01*
X009464Y004183D01*
X009454Y004148D01*
X009441Y004114D01*
X009424Y004082D01*
X009403Y004052D01*
X009380Y004024D01*
X009354Y003999D01*
X009325Y003977D01*
X009293Y003958D01*
X009260Y003943D01*
X009226Y003931D01*
X009190Y003923D01*
X009154Y003919D01*
X009118Y003919D01*
X009082Y003923D01*
X009046Y003931D01*
X009012Y003943D01*
X008979Y003958D01*
X008947Y003977D01*
X008918Y003999D01*
X008892Y004024D01*
X008869Y004052D01*
X008848Y004082D01*
X008831Y004114D01*
X008818Y004148D01*
X008808Y004183D01*
X008802Y004219D01*
X008800Y004255D01*
X010331Y004255D02*
X010333Y004311D01*
X010339Y004367D01*
X010349Y004422D01*
X010362Y004477D01*
X010380Y004530D01*
X010401Y004582D01*
X010425Y004633D01*
X010453Y004682D01*
X010485Y004728D01*
X010519Y004772D01*
X010557Y004814D01*
X010597Y004853D01*
X010640Y004889D01*
X010686Y004922D01*
X010733Y004952D01*
X010783Y004979D01*
X010834Y005001D01*
X010887Y005021D01*
X010941Y005036D01*
X010996Y005048D01*
X011052Y005056D01*
X011108Y005060D01*
X011164Y005060D01*
X011220Y005056D01*
X011276Y005048D01*
X011331Y005036D01*
X011385Y005021D01*
X011438Y005001D01*
X011489Y004979D01*
X011538Y004952D01*
X011586Y004922D01*
X011632Y004889D01*
X011675Y004853D01*
X011715Y004814D01*
X011753Y004772D01*
X011787Y004728D01*
X011819Y004682D01*
X011847Y004633D01*
X011871Y004582D01*
X011892Y004530D01*
X011910Y004477D01*
X011923Y004422D01*
X011933Y004367D01*
X011939Y004311D01*
X011941Y004255D01*
X011939Y004199D01*
X011933Y004143D01*
X011923Y004088D01*
X011910Y004033D01*
X011892Y003980D01*
X011871Y003928D01*
X011847Y003877D01*
X011819Y003828D01*
X011787Y003782D01*
X011753Y003738D01*
X011715Y003696D01*
X011675Y003657D01*
X011632Y003621D01*
X011586Y003588D01*
X011539Y003558D01*
X011489Y003531D01*
X011438Y003509D01*
X011385Y003489D01*
X011331Y003474D01*
X011276Y003462D01*
X011220Y003454D01*
X011164Y003450D01*
X011108Y003450D01*
X011052Y003454D01*
X010996Y003462D01*
X010941Y003474D01*
X010887Y003489D01*
X010834Y003509D01*
X010783Y003531D01*
X010733Y003558D01*
X010686Y003588D01*
X010640Y003621D01*
X010597Y003657D01*
X010557Y003696D01*
X010519Y003738D01*
X010485Y003782D01*
X010453Y003828D01*
X010425Y003877D01*
X010401Y003928D01*
X010380Y003980D01*
X010362Y004033D01*
X010349Y004088D01*
X010339Y004143D01*
X010333Y004199D01*
X010331Y004255D01*
X012800Y004255D02*
X012802Y004291D01*
X012808Y004327D01*
X012818Y004362D01*
X012831Y004396D01*
X012848Y004428D01*
X012869Y004458D01*
X012892Y004486D01*
X012918Y004511D01*
X012947Y004533D01*
X012979Y004552D01*
X013012Y004567D01*
X013046Y004579D01*
X013082Y004587D01*
X013118Y004591D01*
X013154Y004591D01*
X013190Y004587D01*
X013226Y004579D01*
X013260Y004567D01*
X013293Y004552D01*
X013325Y004533D01*
X013354Y004511D01*
X013380Y004486D01*
X013403Y004458D01*
X013424Y004428D01*
X013441Y004396D01*
X013454Y004362D01*
X013464Y004327D01*
X013470Y004291D01*
X013472Y004255D01*
X013470Y004219D01*
X013464Y004183D01*
X013454Y004148D01*
X013441Y004114D01*
X013424Y004082D01*
X013403Y004052D01*
X013380Y004024D01*
X013354Y003999D01*
X013325Y003977D01*
X013293Y003958D01*
X013260Y003943D01*
X013226Y003931D01*
X013190Y003923D01*
X013154Y003919D01*
X013118Y003919D01*
X013082Y003923D01*
X013046Y003931D01*
X013012Y003943D01*
X012979Y003958D01*
X012947Y003977D01*
X012918Y003999D01*
X012892Y004024D01*
X012869Y004052D01*
X012848Y004082D01*
X012831Y004114D01*
X012818Y004148D01*
X012808Y004183D01*
X012802Y004219D01*
X012800Y004255D01*
D11*
X009949Y002425D02*
X009949Y002085D01*
X009779Y002255D02*
X010119Y002255D01*
X012181Y002255D02*
X012521Y002255D01*
X005039Y002243D02*
X004699Y002243D01*
X002637Y002243D02*
X002297Y002243D01*
X002467Y002413D02*
X002467Y002073D01*
D12*
X001254Y001593D02*
X001254Y006893D01*
X006054Y006893D01*
X006054Y001593D01*
X001254Y001593D01*
X002154Y005243D02*
X003154Y006243D01*
X003354Y005743D02*
X004654Y006243D01*
X008736Y006905D02*
X008736Y001605D01*
X013536Y001605D01*
X013536Y006905D01*
X008736Y006905D01*
X009636Y005255D02*
X010636Y006255D01*
X010836Y005755D02*
X012136Y006255D01*
D13*
X008245Y005223D02*
X008245Y005073D01*
X008195Y005023D01*
X008195Y003623D01*
X008245Y003573D01*
X008245Y003423D01*
X008243Y003406D01*
X008239Y003389D01*
X008232Y003373D01*
X008222Y003359D01*
X008209Y003346D01*
X008195Y003336D01*
X008179Y003329D01*
X008162Y003325D01*
X008145Y003323D01*
X007545Y003323D01*
X007528Y003325D01*
X007511Y003329D01*
X007495Y003336D01*
X007481Y003346D01*
X007468Y003359D01*
X007458Y003373D01*
X007451Y003389D01*
X007447Y003406D01*
X007445Y003423D01*
X007445Y003573D01*
X007495Y003623D01*
X007495Y005023D01*
X007445Y005073D01*
X007445Y005223D01*
X007447Y005240D01*
X007451Y005257D01*
X007458Y005273D01*
X007468Y005287D01*
X007481Y005300D01*
X007495Y005310D01*
X007511Y005317D01*
X007528Y005321D01*
X007545Y005323D01*
X008145Y005323D01*
X008162Y005321D01*
X008179Y005317D01*
X008195Y005310D01*
X008209Y005300D01*
X008222Y005287D01*
X008232Y005273D01*
X008239Y005257D01*
X008243Y005240D01*
X008245Y005223D01*
X007344Y005227D02*
X007344Y005077D01*
X007294Y005027D01*
X007294Y003627D01*
X007344Y003577D01*
X007344Y003427D01*
X007342Y003410D01*
X007338Y003393D01*
X007331Y003377D01*
X007321Y003363D01*
X007308Y003350D01*
X007294Y003340D01*
X007278Y003333D01*
X007261Y003329D01*
X007244Y003327D01*
X006644Y003327D01*
X006627Y003329D01*
X006610Y003333D01*
X006594Y003340D01*
X006580Y003350D01*
X006567Y003363D01*
X006557Y003377D01*
X006550Y003393D01*
X006546Y003410D01*
X006544Y003427D01*
X006544Y003577D01*
X006594Y003627D01*
X006594Y005027D01*
X006544Y005077D01*
X006544Y005227D01*
X006546Y005244D01*
X006550Y005261D01*
X006557Y005277D01*
X006567Y005291D01*
X006580Y005304D01*
X006594Y005314D01*
X006610Y005321D01*
X006627Y005325D01*
X006644Y005327D01*
X007244Y005327D01*
X007261Y005325D01*
X007278Y005321D01*
X007294Y005314D01*
X007308Y005304D01*
X007321Y005291D01*
X007331Y005277D01*
X007338Y005261D01*
X007342Y005244D01*
X007344Y005227D01*
D14*
X006944Y005402D03*
X007845Y005398D03*
X007845Y003248D03*
X006944Y003252D03*
D15*
X006864Y002438D02*
X006864Y002211D01*
X006694Y002381D01*
X007034Y002381D01*
X007034Y002079D02*
X006921Y001965D01*
X006921Y002022D02*
X006921Y001852D01*
X007034Y001852D02*
X006694Y001852D01*
X006694Y002022D01*
X006750Y002079D01*
X006864Y002079D01*
X006921Y002022D01*
X007595Y002018D02*
X007595Y001848D01*
X007935Y001848D01*
X007822Y001848D02*
X007822Y002018D01*
X007765Y002075D01*
X007651Y002075D01*
X007595Y002018D01*
X007822Y001961D02*
X007935Y002075D01*
X007878Y002207D02*
X007935Y002264D01*
X007935Y002377D01*
X007878Y002434D01*
X007822Y002434D01*
X007765Y002377D01*
X007765Y002321D01*
X007765Y002377D02*
X007708Y002434D01*
X007651Y002434D01*
X007595Y002377D01*
X007595Y002264D01*
X007651Y002207D01*
M02*
